<svg id="Layer_1" data-name="Layer 1" xmlns="http://www.w3.org/2000/svg" viewBox="0 0 68.4 64.6"><defs><style>.cls-1{fill:#fc0;}.cls-2{fill:#1c1c1c;}</style></defs><title>pin-black-yellow</title><path class="cls-1" d="M81.33,50.33a4.31,4.31,0,0,1-4.57,4H23.38a4.31,4.31,0,0,1-4.57-4V25.76a4.31,4.31,0,0,1,4.57-4H76.76a4.31,4.31,0,0,1,4.57,4Z" transform="translate(-15.8 -17.7)"/><path class="cls-2" d="M79.2,17.7H20.8a5,5,0,0,0-5,5V53.2a5,5,0,0,0,5,5H64.1L76.2,82.3V58.2h3a5,5,0,0,0,5-5V22.7A5,5,0,0,0,79.2,17.7Zm.2,31.8a4.06,4.06,0,0,1-4.3,3.8H24.9a4.06,4.06,0,0,1-4.3-3.8V26.4a4.06,4.06,0,0,1,4.3-3.8H75.1a4.06,4.06,0,0,1,4.3,3.8Z" transform="translate(-15.8 -17.7)"/></svg>