<?xml version="1.0" encoding="utf-8"?>
<!-- Generator: Adobe Illustrator 21.1.0, SVG Export Plug-In . SVG Version: 6.00 Build 0)  -->
<svg version="1.1" id="Layer_1" xmlns="http://www.w3.org/2000/svg" xmlns:xlink="http://www.w3.org/1999/xlink" x="0px" y="0px"
	 viewBox="0 0 50 50" style="enable-background:new 0 0 50 50;" xml:space="preserve">
<style type="text/css">
	.st0{fill:#00B4CE;stroke:#232626;stroke-width:0.25;stroke-miterlimit:10;}
</style>
<title>pin</title>
<path class="st0" d="M25,2.1C14.4,2,5.8,10.5,5.8,21.1c0,8,4.9,15.1,12.3,18l7,8.8l7.1-9c9.8-4,14.5-15.1,10.5-24.9
	C39.8,6.8,32.8,2.1,25,2.1z M25,27.7c-3.7,0-6.8-3-6.7-6.8s3-6.8,6.8-6.7c3.7,0,6.7,3,6.8,6.8C31.8,24.6,28.7,27.7,25,27.7
	C25,27.7,25,27.7,25,27.7z"/>
</svg>
