<?xml version="1.0" encoding="utf-8"?>
<!-- Generator: Adobe Illustrator 21.1.0, SVG Export Plug-In . SVG Version: 6.00 Build 0)  -->
<svg version="1.1" id="Layer_1" xmlns="http://www.w3.org/2000/svg" xmlns:xlink="http://www.w3.org/1999/xlink" x="0px" y="0px"
	 viewBox="0 0 100 125" style="enable-background:new 0 0 100 125;" xml:space="preserve">
<style type="text/css">
	.st0{fill:#FFCC00;}
	.st1{fill:#1C1C1C;}
</style>
<path class="st0" d="M81.3,50.3c0,2.2-2,4-4.6,4H23.4c-2.6,0-4.6-1.8-4.6-4V25.8c0-2.2,2-4,4.6-4h53.4c2.6,0,4.6,1.8,4.6,4V50.3z"/>
<path class="st1" d="M79.2,17.7H20.8c-2.8,0-5,2.2-5,5v30.5c0,2.8,2.2,5,5,5h43.3l12.1,24.1V58.2h3c2.8,0,5-2.2,5-5V22.7
	C84.2,19.9,82,17.7,79.2,17.7z M79.4,49.5c0,2.1-1.9,3.8-4.3,3.8H24.9c-2.4,0-4.3-1.7-4.3-3.8V26.4c0-2.1,1.9-3.8,4.3-3.8h50.2
	c2.4,0,4.3,1.7,4.3,3.8V49.5z"/>
</svg>
